<svg width="122" height="122" viewBox="0 0 122 122" fill="none" xmlns="http://www.w3.org/2000/svg">
<rect width="136" height="35" transform="translate(25.457 0.533203) rotate(45)" fill="#ED3024"/>
<path d="M41.8108 35.1821C41.9365 35.3078 41.9962 35.4617 41.9899 35.6439C41.9962 35.8262 41.9365 35.9801 41.8108 36.1058C41.6788 36.2378 41.5186 36.3037 41.3301 36.3037C41.1541 36.3037 41.0033 36.2409 40.8776 36.1152C40.752 35.9895 40.686 35.8356 40.6797 35.6534C40.686 35.4711 40.7551 35.314 40.8871 35.1821C41.0127 35.0564 41.1636 34.9936 41.3395 34.9936C41.528 34.9936 41.6851 35.0564 41.8108 35.1821ZM42.9513 36.3226C43.0833 36.4546 43.1461 36.6116 43.1398 36.7939C43.1461 36.9761 43.0864 37.1301 42.9607 37.2557C42.8288 37.3877 42.6685 37.4537 42.48 37.4537C42.3041 37.4537 42.1501 37.3877 42.0182 37.2557C41.8925 37.1301 41.8265 36.9761 41.8202 36.7939C41.8265 36.6116 41.8956 36.4546 42.0276 36.3226C42.1533 36.1969 42.3041 36.1341 42.48 36.1341C42.6685 36.1341 42.8256 36.1969 42.9513 36.3226ZM41.6034 38.613L38.0405 42.176C37.9274 42.2891 37.8708 42.4085 37.8708 42.5341C37.8645 42.6535 37.896 42.7478 37.9651 42.8169L38.1536 43.0054L37.4844 43.6747L37.0885 43.2788C36.7994 42.9897 36.68 42.6504 36.7303 42.2608C36.0328 42.1414 35.4484 41.8461 34.9771 41.3748C34.3173 40.715 34.0534 39.9358 34.1854 39.0372C34.2922 38.302 34.6378 37.6422 35.2222 37.0578C35.9071 36.3729 36.702 36.0304 37.6069 36.0304C38.4175 36.0241 39.115 36.3132 39.6994 36.8976C40.0325 37.2306 40.2932 37.6422 40.4818 38.1323L41.2075 38.2172L41.6034 38.613ZM39.822 38.7921C39.6837 38.3774 39.4732 38.0286 39.1904 37.7459C38.7129 37.2683 38.1379 37.0704 37.4655 37.1521C36.9125 37.2149 36.4255 37.4568 36.0045 37.8778C35.5018 38.3805 35.2253 38.8958 35.1751 39.4237C35.1436 39.9201 35.3259 40.3662 35.7218 40.7621C36.0611 41.1014 36.5072 41.3654 37.0602 41.5539L39.822 38.7921ZM44.2562 41.7748L40.8158 45.2152C40.7404 45.2906 40.6555 45.3566 40.5613 45.4131L41.0608 45.9127L40.3916 46.5819L40.024 46.2143L40.0806 45.6111L40.0523 45.5828C39.6627 45.6331 39.3328 45.5231 39.0626 45.2529L37.4225 43.6128L38.0917 42.9436L39.4302 44.282C39.5307 44.3826 39.6438 44.4328 39.7695 44.4328C39.9141 44.4391 40.0397 44.3889 40.1466 44.282L43.455 40.9736L44.2562 41.7748ZM37.3283 45.4791C37.4539 45.6048 37.5168 45.7556 37.5168 45.9315C37.5168 46.1201 37.4539 46.2771 37.3283 46.4028C37.1963 46.5348 37.0392 46.5976 36.857 46.5913C36.6747 46.5976 36.5208 46.5379 36.3951 46.4122C36.2694 46.2866 36.2066 46.1295 36.2066 45.941C36.2066 45.765 36.2726 45.6111 36.4045 45.4791C36.5302 45.3534 36.6842 45.2874 36.8664 45.2812C37.0486 45.2874 37.2026 45.3534 37.3283 45.4791ZM38.4688 46.6196C38.6007 46.7516 38.6667 46.9055 38.6667 47.0815C38.6667 47.27 38.6039 47.4271 38.4782 47.5528C38.3462 47.6847 38.1891 47.7476 38.0069 47.7413C37.8247 47.7476 37.6676 47.6847 37.5356 47.5528C37.4099 47.4271 37.3471 47.27 37.3471 47.0815C37.3471 46.9055 37.4131 46.7516 37.5451 46.6196C37.6707 46.4939 37.8247 46.428 38.0069 46.4217C38.1891 46.428 38.3431 46.4939 38.4688 46.6196ZM47.1557 44.6743L43.7153 48.1147C43.6399 48.1901 43.5551 48.2561 43.4608 48.3126L43.9604 48.8122L43.2911 49.4814L42.9235 49.1138L42.9801 48.5106L42.9518 48.4823C42.5622 48.5326 42.2323 48.4226 41.9621 48.1524L40.322 46.5123L40.9913 45.8431L42.3297 47.1816C42.4303 47.2821 42.5434 47.3324 42.669 47.3324C42.8136 47.3386 42.9392 47.2884 43.0461 47.1816L46.3545 43.8731L47.1557 44.6743ZM41.3683 49.5191C41.5003 49.6511 41.5662 49.805 41.5662 49.981C41.5662 50.1695 41.5034 50.3266 41.3777 50.4523C41.2458 50.5842 41.0887 50.6471 40.9064 50.6408C40.7242 50.6471 40.5671 50.5842 40.4351 50.4523C40.3095 50.3266 40.2466 50.1695 40.2466 49.981C40.2466 49.805 40.3126 49.6511 40.4446 49.5191C40.5702 49.3935 40.7242 49.3275 40.9064 49.3212C41.0887 49.3275 41.2426 49.3935 41.3683 49.5191ZM50.0552 47.5738L46.6148 51.0142C46.3823 51.2467 46.1058 51.3724 45.7854 51.3912C45.4209 51.4164 45.113 51.3033 44.8616 51.0519L43.2216 49.4118L43.8908 48.7426L45.2292 50.0811C45.3361 50.1879 45.4617 50.2382 45.6063 50.2319C45.7319 50.2319 45.845 50.1816 45.9456 50.0811L49.254 46.7726L50.0552 47.5738ZM43.0425 51.1933C43.1681 51.319 43.231 51.4698 43.231 51.6457C43.231 51.8343 43.1681 51.9914 43.0425 52.117C42.9105 52.249 42.7534 52.3118 42.5712 52.3055C42.3889 52.3118 42.235 52.2521 42.1093 52.1265C41.9774 51.9945 41.9114 51.8343 41.9114 51.6457C41.9114 51.4698 41.9774 51.3158 42.1093 51.1839C42.235 51.0582 42.3889 50.9922 42.5712 50.9859C42.7534 50.9922 42.9105 51.0613 43.0425 51.1933ZM44.183 52.3338C44.3149 52.4658 44.3809 52.6197 44.3809 52.7957C44.3746 52.9779 44.3087 53.1319 44.183 53.2575C44.051 53.3895 43.8971 53.4555 43.7211 53.4555C43.5389 53.4618 43.3818 53.3989 43.2498 53.267C43.1242 53.1413 43.0613 52.9842 43.0613 52.7957C43.0613 52.6197 43.1273 52.4658 43.2593 52.3338C43.3849 52.2081 43.5389 52.1422 43.7211 52.1359C43.9033 52.1422 44.0573 52.2081 44.183 52.3338ZM53.8357 51.3543L50.1691 55.0209L50.6498 55.5016L49.9805 56.1708L49.4998 55.6901C48.6955 56.4567 47.8283 56.7646 46.8983 56.6138C46.1443 56.5007 45.4216 56.0986 44.7304 55.4073C44.6236 55.3005 44.4916 55.1623 44.3345 54.9926L44.4099 54.2951L44.7116 53.9935C44.8686 54.2009 45.054 54.4114 45.2677 54.625C46.4993 55.8566 47.6807 55.9069 48.8117 54.7758L53.0345 50.5531L53.8357 51.3543ZM55.3427 53.1818C56.103 53.5776 56.7345 54.0269 57.2373 54.5296C58.0164 55.3088 58.3683 56.1446 58.2929 57.0369C58.2301 57.8035 57.8625 58.523 57.1901 59.1954L55.9931 60.3925C55.9176 60.4679 55.8328 60.5338 55.7386 60.5904L56.0685 60.9203L55.3992 61.5895L55.2013 61.3916L55.2673 60.7978L55.239 60.7695C54.8431 60.8135 54.5132 60.7035 54.2493 60.4396L49.9135 56.1037L50.5827 55.4345L54.6075 59.4593C54.8463 59.6981 55.085 59.6981 55.3238 59.4593L56.4172 58.3659C56.9073 57.8758 57.165 57.3605 57.1901 56.8201C57.2215 56.2231 56.967 55.6545 56.4266 55.114C56.0999 54.7873 55.5281 54.3537 54.7112 53.8133L55.3427 53.1818ZM51.3085 59.4593C51.4404 59.5913 51.5064 59.7452 51.5064 59.9212C51.5064 60.1097 51.4436 60.2668 51.3179 60.3925C51.1859 60.5244 51.0288 60.5873 50.8466 60.581C50.6644 60.5873 50.5073 60.5244 50.3753 60.3925C50.2496 60.2668 50.1868 60.1097 50.1868 59.9212C50.1868 59.7452 50.2528 59.5913 50.3847 59.4593C50.5104 59.3336 50.6644 59.2676 50.8466 59.2614C51.0288 59.2676 51.1828 59.3336 51.3085 59.4593ZM62.7154 56.0867C62.8474 56.2187 62.9102 56.3758 62.904 56.558C62.904 56.734 62.8411 56.8848 62.7154 57.0105C62.5835 57.1424 62.4264 57.2115 62.2442 57.2178C62.0682 57.2178 61.9143 57.1518 61.7823 57.0199C61.6566 56.8942 61.5906 56.7403 61.5844 56.558C61.5906 56.3758 61.6598 56.2187 61.7917 56.0867C61.9174 55.9611 62.0682 55.8982 62.2442 55.8982C62.4327 55.8982 62.5898 55.9611 62.7154 56.0867ZM63.8654 57.2367C63.9911 57.3624 64.0508 57.5163 64.0445 57.6985C64.0508 57.8808 63.9911 58.0347 63.8654 58.1604C63.7334 58.2924 63.5732 58.3583 63.3847 58.3583C63.2087 58.3583 63.0579 58.2955 62.9322 58.1698C62.8003 58.0379 62.7312 57.8808 62.7249 57.6985C62.7312 57.5163 62.8003 57.3592 62.9322 57.2272C63.0579 57.1016 63.2087 57.0387 63.3847 57.0387C63.5732 57.0387 63.7334 57.1047 63.8654 57.2367ZM62.1688 59.6874L58.7284 63.1278C58.4959 63.3603 58.2194 63.4859 57.8989 63.5048C57.5344 63.5299 57.2265 63.4168 56.9752 63.1655L55.3351 61.5254L56.0043 60.8562L57.3428 62.1946C57.4496 62.3014 57.5753 62.3517 57.7198 62.3454C57.8455 62.3454 57.9586 62.2952 58.0591 62.1946L61.3676 58.8862L62.1688 59.6874ZM69.5817 62.953C69.7074 63.0787 69.7671 63.2326 69.7608 63.4149C69.7671 63.5971 69.7074 63.7511 69.5817 63.8767C69.4498 64.0087 69.2895 64.0747 69.101 64.0747C68.9251 64.0747 68.7742 64.0118 68.6486 63.8862C68.5229 63.7605 68.4569 63.6065 68.4506 63.4243C68.4569 63.2421 68.526 63.085 68.658 62.953C68.7837 62.8273 68.9345 62.7645 69.1104 62.7645C69.2989 62.7645 69.456 62.8273 69.5817 62.953ZM70.7222 64.0935C70.8542 64.2255 70.917 64.3826 70.9107 64.5648C70.917 64.747 70.8573 64.901 70.7317 65.0267C70.5997 65.1586 70.4395 65.2246 70.2509 65.2246C70.075 65.2246 69.921 65.1586 69.7891 65.0267C69.6634 64.901 69.5974 64.747 69.5911 64.5648C69.5974 64.3826 69.6666 64.2255 69.7985 64.0935C69.9242 63.9678 70.075 63.905 70.2509 63.905C70.4395 63.905 70.5966 63.9678 70.7222 64.0935ZM69.3744 66.384L65.8114 69.9469C65.6983 70.06 65.6418 70.1794 65.6418 70.3051C65.6355 70.4245 65.6669 70.5187 65.736 70.5879L65.9245 70.7764L65.2553 71.4456L64.8594 71.0497C64.5704 70.7607 64.451 70.4213 64.5012 70.0317C63.8037 69.9123 63.2193 69.617 62.7481 69.1457C62.0883 68.4859 61.8243 67.7067 61.9563 66.8081C62.0631 66.0729 62.4087 65.4131 62.9931 64.8287C63.6781 64.1438 64.473 63.8013 65.3778 63.8013C66.1885 63.795 66.886 64.0841 67.4704 64.6685C67.8034 65.0015 68.0642 65.4131 68.2527 65.9033L68.9785 65.9881L69.3744 66.384ZM67.5929 66.5631C67.4546 66.1483 67.2441 65.7996 66.9614 65.5168C66.4838 65.0392 65.9088 64.8413 65.2365 64.923C64.6835 64.9858 64.1965 65.2278 63.7755 65.6488C63.2728 66.1515 62.9963 66.6667 62.946 67.1946C62.9146 67.691 63.0968 68.1372 63.4927 68.533C63.832 68.8724 64.2782 69.1363 64.8311 69.3248L67.5929 66.5631ZM74.5815 67.9528C74.7134 68.0847 74.7763 68.2418 74.77 68.4241C74.77 68.6 74.7072 68.7508 74.5815 68.8765C74.4495 69.0085 74.2924 69.0776 74.1102 69.0839C73.9342 69.0839 73.7803 69.0179 73.6483 68.8859C73.5227 68.7602 73.4567 68.6063 73.4504 68.4241C73.4567 68.2418 73.5258 68.0847 73.6578 67.9528C73.7834 67.8271 73.9342 67.7643 74.1102 67.7643C74.2987 67.7643 74.4558 67.8271 74.5815 67.9528ZM70.6227 68.4618C71.383 68.8576 72.0145 69.3069 72.5172 69.8096C73.2964 70.5888 73.6483 71.4246 73.5729 72.3169C73.5101 73.0835 73.1425 73.803 72.4701 74.4754L71.2731 75.6725C71.1976 75.7479 71.1128 75.8138 71.0186 75.8704L71.3485 76.2003L70.6792 76.8695L70.4813 76.6716L70.5473 76.0778L70.519 76.0495C70.1231 76.0935 69.7932 75.9835 69.5293 75.7196L65.1935 71.3837L65.8627 70.7145L69.8875 74.7393C70.1263 74.9781 70.365 74.9781 70.6038 74.7393L71.6972 73.6459C72.1873 73.1558 72.445 72.6405 72.4701 72.1001C72.5015 71.5031 72.247 70.9344 71.7066 70.394C71.3799 70.0673 70.808 69.6337 69.9912 69.0933L70.6227 68.4618ZM83.9148 81.4334L80.4744 84.8738C80.3927 84.9555 80.3079 85.0215 80.2199 85.0717L80.7289 85.5807L80.0597 86.25L79.6826 85.8729L79.7486 85.2791L79.7203 85.2508C79.3245 85.2948 78.9946 85.1849 78.7306 84.9209L76.8738 83.0641L76.9398 82.4702L76.9115 82.442C76.5156 82.486 76.1857 82.376 75.9218 82.1121L74.0649 80.2552L74.1309 79.6614L74.1026 79.6331C73.7067 79.6771 73.3768 79.5671 73.1129 79.3032L70.6151 76.8054L71.2843 76.1362L73.4711 78.3229C73.7099 78.5617 73.9487 78.5617 74.1874 78.3229L76.4119 76.0984L77.2131 76.8996L74.8567 79.2561C74.775 79.3378 74.6933 79.4069 74.6116 79.4634L76.28 81.1318C76.5187 81.3706 76.7575 81.3706 76.9963 81.1318L79.7675 78.3606L80.5687 79.1618L77.6655 82.0649C77.5838 82.1466 77.499 82.2126 77.411 82.2629L79.0888 83.9407C79.3276 84.1794 79.5664 84.1794 79.8052 83.9407L83.1136 80.6322L83.9148 81.4334ZM88.4876 81.8589C88.6196 81.9909 88.6824 82.148 88.6761 82.3302C88.6824 82.5124 88.6227 82.6664 88.497 82.792C88.3651 82.924 88.2048 82.99 88.0163 82.99C87.8404 82.99 87.6864 82.924 87.5545 82.792C87.4288 82.6664 87.3628 82.5124 87.3565 82.3302C87.3628 82.148 87.4319 81.9909 87.5639 81.8589C87.6896 81.7332 87.8404 81.6704 88.0163 81.6704C88.2048 81.6704 88.3619 81.7332 88.4876 81.8589ZM86.8192 84.3379L83.3789 87.7783C83.1464 88.0108 82.8699 88.1364 82.5494 88.1553C82.1849 88.1804 81.877 88.0673 81.6257 87.816L79.9856 86.1759L80.6548 85.5067L81.9933 86.8451C82.1001 86.9519 82.2258 87.0022 82.3703 86.9959C82.496 86.9959 82.6091 86.9456 82.7096 86.8451L86.0181 83.5367L86.8192 84.3379Z" fill="white"/>
</svg>
